<svg xmlns="http://www.w3.org/2000/svg" width="300" height="50" viewBox="0 0 300 50" fill="none" transform="matrix(1, 0, 0, 1, 0, 0)">
<g clip-path="url(#clip0_7410_12582)">
<path d="M192.213 45.4851C191.729 45.8243 191.063 45.9548 190.736 45.9809L193.023 49.7909H192.069L189.795 45.9809H185.849V49.7909H185V40.7617H190.318C191.233 40.7617 191.494 40.84 192.03 41.1271C192.775 41.5316 193.219 42.5754 193.219 43.3583C193.219 44.1412 192.84 45.0284 192.213 45.4721V45.4851ZM191.638 41.8838C191.324 41.6881 190.998 41.6098 189.952 41.6098H185.849V45.1589H189.952C190.906 45.1589 191.337 45.0937 191.703 44.8327C192.161 44.4935 192.396 43.8932 192.396 43.3322C192.396 42.732 192.161 42.197 191.651 41.8708L191.638 41.8838Z" fill="#ffffff"/>
<path d="M201.974 49.8052V40.7891H209.422V41.6372H202.784V44.7296H206.403V45.5516H202.784V48.9702H209.709V49.7922H201.974V49.8052Z" fill="#ffffff"/>
<path d="M221.809 50.0005C221.025 50.0005 220.241 49.883 219.509 49.609C218.581 49.2828 218.058 48.8262 217.379 48.1477L217.954 47.5474C219.117 48.7348 220.241 49.1524 221.887 49.1524C223.102 49.1524 225.35 48.8392 225.35 47.2082C225.35 46.0339 224.147 45.5641 223.311 45.4859C222.815 45.4337 221.613 45.4467 220.92 45.4337C219.548 45.4076 218.032 44.8596 218.032 43.2547C218.032 41.8977 219.169 41.1017 220.358 40.7755C220.92 40.619 221.495 40.5537 222.07 40.5537C223.481 40.5537 224.553 41.0104 225.663 41.8455L225.154 42.4587C224.056 41.7541 223.259 41.3627 221.913 41.3627C221.521 41.3627 221.142 41.3888 220.75 41.4801C219.901 41.6758 218.842 42.2369 218.842 43.2416C218.842 44.3507 220.031 44.5855 220.907 44.6116C221.626 44.6377 222.697 44.6377 223.363 44.6899C224.879 44.8074 226.16 45.6555 226.16 47.1951C226.16 49.4133 223.533 49.9874 221.782 49.9874L221.809 50.0005Z" fill="#ffffff"/>
<path d="M238.756 50.0004C236.052 50.0004 233.856 48.0301 233.856 45.277C233.856 42.5239 236.052 40.5928 238.691 40.5928C241.331 40.5928 243.591 42.55 243.591 45.3031C243.591 48.0562 241.422 50.0004 238.756 50.0004ZM238.756 41.4017C236.574 41.4017 234.68 42.9936 234.68 45.2509C234.68 47.5082 236.457 49.1653 238.73 49.1653C241.004 49.1653 242.781 47.5996 242.781 45.3162C242.781 43.0328 240.991 41.4017 238.756 41.4017Z" fill="#ffffff"/>
<path d="M259.31 45.4851C258.827 45.8243 258.16 45.9548 257.834 45.9809L260.12 49.7909H259.166L256.893 45.9809H252.96V49.7909H252.11V40.7617H257.428C258.343 40.7617 258.605 40.84 259.14 41.1271C259.885 41.5316 260.329 42.5754 260.329 43.3583C260.329 44.1412 259.95 45.0284 259.323 45.4721L259.31 45.4851ZM258.748 41.8838C258.435 41.6881 258.108 41.6098 257.063 41.6098H252.96V45.1589H257.063C258.016 45.1589 258.448 45.0937 258.814 44.8327C259.271 44.4935 259.506 43.8932 259.506 43.3322C259.506 42.732 259.271 42.197 258.761 41.8708L258.748 41.8838Z" fill="#ffffff"/>
<path d="M272.495 41.5974V49.8046H271.672V41.5974H268.209V40.7754H275.918V41.5974H272.508H272.495Z" fill="#ffffff"/>
<path d="M287.783 50.0005C286.999 50.0005 286.215 49.883 285.483 49.609C284.569 49.2828 284.046 48.8262 283.354 48.1477L283.928 47.5474C285.091 48.7348 286.215 49.1524 287.862 49.1524C289.077 49.1524 291.324 48.8392 291.324 47.2082C291.324 46.0339 290.122 45.5641 289.286 45.4859C288.789 45.4337 287.587 45.4467 286.895 45.4337C285.523 45.4076 283.994 44.8596 283.994 43.2547C283.994 41.8977 285.131 41.1017 286.32 40.7755C286.882 40.619 287.456 40.5537 288.031 40.5537C289.443 40.5537 290.514 41.0104 291.625 41.8455L291.115 42.4587C290.018 41.7541 289.22 41.3627 287.888 41.3627C287.496 41.3627 287.117 41.3888 286.725 41.4801C285.875 41.6758 284.817 42.2369 284.817 43.2416C284.817 44.3507 286.006 44.5855 286.895 44.6116C287.613 44.6377 288.685 44.6377 289.351 44.6899C290.867 44.8074 292.147 45.6555 292.147 47.1951C292.147 49.4133 289.521 49.9874 287.77 49.9874L287.783 50.0005Z" fill="#ffffff"/>
<path d="M230.158 0L232.458 6.47182L234.509 3.10543L230.158 0Z" fill="#ffffff"/>
<path d="M232.327 6.06681L232.994 7.95878C234.81 7.86744 236.666 7.8283 238.547 7.8283C240.429 7.8283 242.428 7.88049 244.323 7.97182L244.911 6.07986C242.846 5.94938 240.716 5.87109 238.547 5.87109C236.378 5.87109 234.353 5.93633 232.34 6.06681M205.449 13.2302C212.401 10.5553 221.417 8.65032 231.478 8.03706L230.825 6.1712C220.084 7.01932 210.976 9.62892 205.449 13.2302ZM246.387 6.18425L245.812 8.05011C255.861 8.67642 264.811 10.5814 271.723 13.2302C266.275 9.64197 257.167 7.04542 246.387 6.18425Z" fill="#ffffff"/>
<path d="M247.028 0.0126953L244.728 6.60194L242.677 3.11812L247.028 0.0126953Z" fill="#ffffff"/>
<path d="M238.558 -0.000823626L237.275 1.2832L238.561 2.5641L239.844 1.28007L238.558 -0.000823626Z" fill="#ffffff"/>
<path d="M236.763 1.83405L235.479 3.11719L236.764 4.39898L238.048 3.11584L236.763 1.83405Z" fill="#ffffff"/>
<path d="M240.42 1.83308L239.137 3.11621L240.422 4.398L241.705 3.11487L240.42 1.83308Z" fill="#ffffff"/>
<path d="M194.146 28.1187H187.43V34.6688H185.183V19.2461H194.146C196.877 19.2461 198.654 20.8771 198.654 23.6433C198.654 26.4095 196.851 28.1057 194.146 28.1057V28.1187ZM194.146 21.5034H187.43V25.8484H194.133C195.584 25.8484 196.407 25.1438 196.407 23.6563C196.407 22.1688 195.623 21.5034 194.133 21.5034H194.146Z" fill="#ffffff"/>
<path d="M215.498 34.6689L213.276 29.5802H206.338L204.038 34.6689H201.595L208.612 19.207H211.094L218.006 34.6689H215.485H215.498ZM209.827 21.9341L207.383 27.3098H212.27L209.827 21.9341Z" fill="#ffffff"/>
<path d="M222.959 34.6691V19.1289H225.22V32.4248H234.614V34.6821H222.959V34.6691Z" fill="#ffffff"/>
<path d="M252.921 34.6689L250.699 29.5802H243.761L241.461 34.6689H239.018L246.034 19.207H248.517L255.429 34.6689H252.907H252.921ZM247.25 21.9341L244.806 27.3098H249.693L247.25 21.9341Z" fill="#ffffff"/>
<path d="M267.216 35.0473C262.459 35.0473 258.526 31.8636 258.526 26.9184C258.526 22.2472 262.146 18.8809 266.758 18.8809C269.62 18.8809 272.181 20.0813 274.206 22.0385L272.534 23.4607C270.874 22.0776 269.097 21.1251 266.876 21.1251C263.479 21.1251 260.722 23.4607 260.722 26.9576C260.722 30.7024 263.871 32.7639 267.346 32.7639C269.764 32.7639 271.279 31.955 272.952 30.2848L274.442 31.9028C272.573 34.0948 270.025 35.0473 267.19 35.0473H267.216Z" fill="#ffffff"/>
<path d="M278.884 34.6682V19.2324H291.585V21.5028H281.132V25.5346H286.398V27.7658H281.132V32.4109H291.977V34.6682H278.871H278.884Z" fill="#ffffff"/>
<path d="M297.557 40.293C298.903 40.293 300 41.389 300 42.7329C300 44.0769 298.903 45.1729 297.557 45.1729C296.211 45.1729 295.113 44.0769 295.113 42.7329C295.113 41.389 296.211 40.293 297.557 40.293ZM297.557 44.8206C298.72 44.8206 299.647 43.8812 299.647 42.7329C299.647 41.5847 298.72 40.6453 297.557 40.6453C296.394 40.6453 295.466 41.5717 295.466 42.7329C295.466 43.8942 296.394 44.8206 297.557 44.8206ZM297.021 44.1291H296.668V41.3107H297.753C298.393 41.3107 298.641 41.5847 298.641 42.0936C298.641 42.6025 298.315 42.8243 297.936 42.8895L298.772 44.1291H298.367L297.531 42.8895H297.021V44.1291ZM297.021 42.5764H297.478C297.87 42.5764 298.288 42.5503 298.288 42.0936C298.288 41.7282 297.962 41.6239 297.661 41.6239H297.034V42.5764H297.021Z" fill="#ffffff"/>
</g>
<line x1="160.5" y1="19" x2="160.5" y2="50" stroke="#ffffff" fill="#ffffff"/>
<path d="M18.3926 49.4005C16.0636 49.4005 13.7182 47.773 13.7182 43.7474C13.7182 39.7218 16.0636 38.0942 18.3926 38.0942C20.0486 38.0942 21.8862 38.4328 22.8668 40.9523H23.0205V38.678C22.04 37.9565 20.2769 37.4941 18.3926 37.4941C14.8524 37.4941 11.9248 39.9226 11.9248 43.7474C11.9248 47.5722 14.8524 50.0006 18.3926 50.0006C20.0626 50.0006 21.7325 49.662 23.0671 48.8027V46.5284H22.9134C21.9328 49.0479 20.0626 49.4005 18.3926 49.4005Z" fill="#ffffff"/>
<path d="M35.0665 37.4941C31.5263 37.4941 28.5381 39.9226 28.5381 43.7474C28.5381 47.5722 31.5263 50.0006 35.0665 50.0006C38.6067 50.0006 41.5949 47.5722 41.5949 43.7474C41.5949 39.9226 38.6067 37.4941 35.0665 37.4941ZM35.0665 49.4005C32.7374 49.4005 30.3315 47.773 30.3315 43.7474C30.3315 39.7218 32.7374 38.0942 35.0665 38.0942C37.3955 38.0942 39.8015 39.7218 39.8015 43.7474C39.8015 47.773 37.3955 49.4005 35.0665 49.4005Z" fill="#ffffff"/>
<path d="M57.5489 37.6943L53.9482 47.9568L50.1169 37.6943H48.2024L47.6807 49.7852H48.5075L48.936 40.0948C48.9454 39.8589 49.2691 39.8075 49.3529 40.027L53.0422 49.7852H54.0833L57.4791 40.1251C57.5583 39.9009 57.889 39.95 57.8983 40.1882L58.2826 49.7852H59.906L59.3843 37.6943H57.5443H57.5489Z" fill="#ffffff"/>
<path d="M104.598 46.5301C104.598 46.7379 104.333 46.8267 104.209 46.6586L97.6274 37.6943H95.7734V49.7852H96.6166V39.5834C96.6166 39.3756 96.8821 39.2868 97.0055 39.455L104.584 49.7852H105.441V37.6943H104.598V46.5301Z" fill="#ffffff"/>
<path d="M117.013 43.551C116.929 43.6888 116.729 43.6888 116.645 43.551L113.074 37.6924H111.344L115.573 44.6064V49.7832H117.166V44.6204L121.443 37.6924H120.569L117.015 43.551H117.013Z" fill="#ffffff"/>
<path d="M83.8327 37.6943L79.0977 49.7852H79.9245L81.5106 45.7596C81.5432 45.6778 81.6224 45.6218 81.7109 45.6218H86.3224C86.4109 45.6218 86.4901 45.6755 86.5227 45.7596L88.0925 49.7852H89.7625L85.0275 37.6943H83.8327ZM86.2805 45.3533L85.4747 44.7485C85.3256 44.6364 85.1439 44.5757 84.9576 44.5757H82.2955C82.1441 44.5757 82.0393 44.4216 82.0952 44.2792L83.8303 39.8776C83.9025 39.6955 84.1611 39.6955 84.2309 39.8776L86.3457 45.3019C86.362 45.3416 86.3155 45.379 86.2805 45.3533Z" fill="#ffffff"/>
<path d="M125.912 37.7012C124.804 37.7012 123.902 38.6048 123.902 39.7163C123.902 40.8278 124.804 41.7315 125.912 41.7315C127.021 41.7315 127.922 40.8278 127.922 39.7163C127.922 38.6048 127.021 37.7012 125.912 37.7012ZM125.912 41.4629C124.95 41.4629 124.17 40.6784 124.17 39.7163C124.17 38.7543 124.953 37.9697 125.912 37.9697C126.872 37.9697 127.654 38.7543 127.654 39.7163C127.654 40.6784 126.872 41.4629 125.912 41.4629Z" fill="#ffffff"/>
<path d="M126.283 39.74C126.429 39.719 126.543 39.6606 126.62 39.5649C126.7 39.4668 126.739 39.3477 126.739 39.2029C126.739 39.0909 126.718 38.9975 126.679 38.9251C126.637 38.8527 126.583 38.7943 126.516 38.7523C126.446 38.7079 126.364 38.6776 126.276 38.6589C126.182 38.6402 126.087 38.6309 125.987 38.6309H125.288V40.6857H125.579V39.7774H125.929L126.425 40.6857H126.776L126.215 39.747L126.283 39.7377V39.74ZM125.919 39.5415H125.579V38.8714H125.954C126.005 38.8714 126.057 38.8737 126.108 38.8807C126.164 38.8877 126.215 38.9017 126.262 38.9227C126.311 38.9438 126.352 38.9788 126.383 39.0255C126.413 39.0722 126.429 39.1306 126.429 39.2029C126.429 39.2823 126.413 39.3477 126.378 39.3944C126.345 39.4411 126.301 39.4761 126.25 39.4972C126.201 39.5182 126.145 39.5322 126.087 39.5369C126.031 39.5415 125.975 39.5439 125.919 39.5439V39.5415Z" fill="#ffffff"/>
<path d="M70.6225 37.6943H67.1895V49.7852H68.7825V44.4543H70.6225C73.273 44.4543 75.7721 43.6393 75.7721 41.0755C75.7721 38.5116 73.2753 37.6943 70.6225 37.6943ZM70.5154 43.7631H69.0946L68.6451 44.0994C68.6102 44.125 68.5636 44.09 68.5799 44.048L68.7849 43.5249V38.6027C68.7849 38.4836 68.8804 38.3855 69.0015 38.3855H70.5177C72.6488 38.3855 73.981 39.0627 73.981 41.0731C73.981 43.0836 72.6488 43.7608 70.5177 43.7608L70.5154 43.7631Z" fill="#ffffff"/>
<path d="M24.1963 24.469C24.1963 24.5881 24.1008 24.6862 23.9797 24.6862H17.8845C17.8845 24.6862 17.8822 24.6862 17.8798 24.6862L17.3768 25.0645C17.3418 25.0901 17.2953 25.0551 17.3116 25.0131L17.6702 24.0931V19.2012H16.0771V31.292H17.6702V25.6856C17.6702 25.5665 17.7657 25.4684 17.8868 25.4684H23.982C24.1008 25.4684 24.1986 25.5642 24.1986 25.6856V31.292H25.7917V19.2012H24.1986V24.469H24.1963Z" fill="#ffffff"/>
<path d="M33.1494 31.292H40.7958V30.5541H34.9591C34.8403 30.5541 34.7425 30.4584 34.7425 30.337V25.6529C34.7425 25.5338 34.838 25.4357 34.9591 25.4357H40.0458V24.6979H35.0616L34.5818 25.0575C34.5469 25.0831 34.5003 25.0481 34.5166 25.0061L34.7448 24.4177V20.1539C34.7448 20.0348 34.8403 19.9367 34.9614 19.9367H40.7981V19.2012H33.1517V31.292H33.1494Z" fill="#ffffff"/>
<path d="M57.9448 19.2012H54.5117V31.292H56.1048V25.9611H57.9448C60.5953 25.9611 63.0943 25.1462 63.0943 22.5823C63.0943 20.0184 60.5976 19.2012 57.9448 19.2012ZM57.8376 25.2699H56.4169L55.9674 25.6062C55.9325 25.6319 55.8859 25.5968 55.9022 25.5548L56.1071 25.0318V20.1072C56.1071 19.9881 56.2026 19.89 56.3237 19.89H57.84C59.9711 19.89 61.3033 20.5672 61.3033 22.5776C61.3033 24.5881 59.9711 25.2653 57.84 25.2653L57.8376 25.2699Z" fill="#ffffff"/>
<path d="M84.5038 30.8437C84.4689 30.8694 84.4223 30.8343 84.4386 30.7923L84.6878 30.1502V19.2012H83.0947V31.292H90.7411V30.5541H84.8904L84.5038 30.8437Z" fill="#ffffff"/>
<path d="M116.167 30.9064C113.838 30.9064 111.493 29.2789 111.493 25.2532C111.493 21.2276 113.838 19.6001 116.167 19.6001C117.823 19.6001 119.661 19.9387 120.641 22.4582H120.795V20.1839C119.814 19.4623 118.051 19 116.167 19C112.627 19 109.699 21.4284 109.699 25.2532C109.699 29.078 112.627 31.5065 116.167 31.5065C117.837 31.5065 119.507 31.1679 120.842 30.3086V28.0343H120.688C119.707 30.5538 117.837 30.9064 116.167 30.9064Z" fill="#ffffff"/>
<path d="M71.1559 19.2012L66.4209 31.292H67.2477L68.8338 27.2664C68.8664 27.1847 68.9456 27.1286 69.0341 27.1286H73.6457C73.7342 27.1286 73.8134 27.1823 73.846 27.2664L75.4158 31.292H77.0857L72.3507 19.2012H71.1559ZM73.6038 26.8601L72.7979 26.2553C72.6488 26.1432 72.4672 26.0825 72.2808 26.0825H69.6187C69.4673 26.0825 69.3625 25.9284 69.4184 25.786L71.1536 21.3844C71.2258 21.2023 71.4843 21.2023 71.5542 21.3844L73.669 26.8087C73.6853 26.8484 73.6387 26.8858 73.6038 26.8601Z" fill="#ffffff"/>
<path d="M99.4166 19.2012L94.6816 31.292H95.5085L97.0946 27.2664C97.1272 27.1847 97.2064 27.1286 97.2949 27.1286H101.906C101.995 27.1286 102.074 27.1823 102.107 27.2664L103.677 31.292H105.346L100.611 19.2012H99.4166ZM101.864 26.8601L101.059 26.2553C100.91 26.1432 100.728 26.0825 100.542 26.0825H97.8795C97.7281 26.0825 97.6233 25.9284 97.6792 25.786L99.4143 21.3844C99.4865 21.2023 99.745 21.2023 99.8149 21.3844L101.93 26.8087C101.946 26.8484 101.899 26.8858 101.864 26.8601Z" fill="#ffffff"/>
<path d="M127.354 31.292H135V30.5541H129.163C129.044 30.5541 128.947 30.4584 128.947 30.337V25.6529C128.947 25.5338 129.042 25.4357 129.163 25.4357H134.25V24.6979H129.266L128.786 25.0575C128.751 25.0831 128.704 25.0481 128.721 25.0061L128.949 24.4177V20.1539C128.949 20.0348 129.044 19.9367 129.166 19.9367H135.002V19.2012H127.356V31.292H127.354Z" fill="#ffffff"/>
<path d="M0 19.2012V19.939H4.29015V31.292H5.88324V20.35L5.5758 19.9367L5.48031 19.8083C5.45469 19.7733 5.48962 19.7266 5.53155 19.7429L6.02997 19.939H10.1757V19.2012H0Z" fill="#ffffff"/>
<defs fill="#ffffff">
<clipPath id="clip0_7410_12582" fill="#ffffff">
<rect width="115" height="50" fill="#ffffff" transform="translate(185)"/>
</clipPath>
</defs>
</svg>